# xmcd
#
# Track frame offsets:
#	150
#	881
#	18666
#	31778
#	49832
#	69128
#	82082
#	96019
#	114053
#	130724
#	145746
#	148027
#	163619
#	179682
#	196293
#	216945
#	237604
#	246999
#	263255
#	282214
#	299178
#	307247
#	324329
#	336079
#
# Disc length: 4731 seconds
#
# Revision: 1
# Processed by: cddbd v1.5.2PL0 Copyright (c) Steve Scherf et al.
# Submitted via: audiograbber 1.83.01
#
DISCID=5c127918
DTITLE=Country Hotdisc 106 - Country Hotdisc 106
DYEAR=2007
DGENRE=Country
TTITLE0=Bring It On The Love - Victoria Shaw
TTITLE1=White Lightning And Pink Champagne  - Karl Sapp
TTITLE2=Out Of My Mind  - Chillie Gold
TTITLE3=Out Of My Mind  - Track  4
TTITLE4=Palle Ib
TTITLE5=Devil´s Hand  - Clive John
TTITLE6=Half Enough  - Chrissy Byrne
TTITLE7=Blue Eyed Baby  - The Rescue
TTITLE8=Ring In Time  - Mike Lounibos
TTITLE9=Little Jimmy Brown  - Nicolas Mccarthy With Yellowstone Picnic Band 
TTITLE10=Highway Dave Explane About The Charity Single That´s Been Released  - 
TTITLE10=Highway Dave
TTITLE11=Ride The Lion  - Highway Dave and The Varmints
TTITLE12=John Peel Country  - Martin Smith
TTITLE13=Down To Earth Kinda Man  - Travis Logan
TTITLE14=Flight Of Jesse James  - Dough Spartz
TTITLE15=Since You´ve Gone  - Barnaby Newman
TTITLE16=I´m Too Young To Mary  - Bryan Chalker and Legacy
TTITLE17=Southern Signs  - The Rider
TTITLE18=Loved You So  - Richard Frankz
TTITLE19=Hungry Man  - Sprockett
TTITLE20=I Lied Alone  - Jason Lee Wilson
TTITLE21=Shack Rouser  - Dig Wayne
TTITLE22=I Don´t Sing Hank Williams Anymore - Rayburn Anthony
TTITLE23=A Violin That Never Has Been Played - Red Jenkins and Amber Digby
EXTD=
EXTT0=
EXTT1=
EXTT2=
EXTT3=
EXTT4=
EXTT5=
EXTT6=
EXTT7=
EXTT8=
EXTT9=
EXTT10=
EXTT11=
EXTT12=
EXTT13=
EXTT14=
EXTT15=
EXTT16=
EXTT17=
EXTT18=
EXTT19=
EXTT20=
EXTT21=
EXTT22=
EXTT23=
PLAYORDER=
